<svg xmlns="http://www.w3.org/2000/svg" xmlns:xlink="http://www.w3.org/1999/xlink" width="401" height="308" viewBox="0 0 401 308">
  <defs>
    <filter id="Rectangle_19" x="0" y="0" width="401" height="308" filterUnits="userSpaceOnUse">
      <feOffset dy="3" input="SourceAlpha"/>
      <feGaussianBlur stdDeviation="7.5" result="blur"/>
      <feFlood flood-color="#757575" flood-opacity="0.11"/>
      <feComposite operator="in" in2="blur"/>
      <feComposite in="SourceGraphic"/>
    </filter>
    <filter id="Path_3" x="77.884" y="90.938" width="260.898" height="106.15" filterUnits="userSpaceOnUse">
      <feOffset input="SourceAlpha"/>
      <feGaussianBlur stdDeviation="3" result="blur-2"/>
      <feFlood flood-color="#9272ff" flood-opacity="0.722"/>
      <feComposite operator="in" in2="blur-2"/>
      <feComposite in="SourceGraphic"/>
    </filter>
    <filter id="Path_4" x="80.391" y="66.036" width="261.741" height="164.987" filterUnits="userSpaceOnUse">
      <feOffset dy="3" input="SourceAlpha"/>
      <feGaussianBlur stdDeviation="3" result="blur-3"/>
      <feFlood flood-color="#21e555" flood-opacity="0.569"/>
      <feComposite operator="in" in2="blur-3"/>
      <feComposite in="SourceGraphic"/>
    </filter>
    <filter id="Line_14" x="123.5" y="253.5" width="50" height="21" filterUnits="userSpaceOnUse">
      <feOffset input="SourceAlpha"/>
      <feGaussianBlur stdDeviation="3" result="blur-4"/>
      <feFlood flood-color="#ae29f9" flood-opacity="0.451"/>
      <feComposite operator="in" in2="blur-4"/>
      <feComposite in="SourceGraphic"/>
    </filter>
    <filter id="Line_15" x="272.5" y="253.5" width="50" height="21" filterUnits="userSpaceOnUse">
      <feOffset input="SourceAlpha"/>
      <feGaussianBlur stdDeviation="3" result="blur-5"/>
      <feFlood flood-color="#2bdca6" flood-opacity="0.569"/>
      <feComposite operator="in" in2="blur-5"/>
      <feComposite in="SourceGraphic"/>
    </filter>
  </defs>
  <g id="Group_3" data-name="Group 3" transform="translate(-765.5 -672.5)">
    <g transform="matrix(1, 0, 0, 1, 765.5, 672.5)" filter="url(#Rectangle_19)">
      <rect id="Rectangle_19-2" data-name="Rectangle 19" width="356" height="263" rx="12" transform="translate(22.5 19.5)" fill="#fff"/>
    </g>
    <line id="Line_8" data-name="Line 8" x2="240.999" transform="translate(853.229 890.95)" fill="none" stroke="#707070" stroke-linecap="round" stroke-width="0.5" stroke-dasharray="1 7"/>
    <line id="Line_9" data-name="Line 9" x2="240.999" transform="translate(853.229 832.686)" fill="none" stroke="#707070" stroke-linecap="round" stroke-width="0.5" stroke-dasharray="1 7"/>
    <line id="Line_10" data-name="Line 10" x2="240.999" transform="translate(853.229 747.057)" fill="none" stroke="#707070" stroke-linecap="round" stroke-width="0.5" stroke-dasharray="1 7"/>
    <line id="Line_11" data-name="Line 11" x2="240.999" transform="translate(853.229 860.052)" fill="none" stroke="#707070" stroke-linecap="round" stroke-width="0.5" stroke-dasharray="1 7"/>
    <line id="Line_12" data-name="Line 12" x2="240.999" transform="translate(853.229 774.423)" fill="none" stroke="#707070" stroke-linecap="round" stroke-width="0.5" stroke-dasharray="1 7"/>
    <line id="Line_13" data-name="Line 13" x2="240.999" transform="translate(853.229 801.789)" fill="none" stroke="#707070" stroke-linecap="round" stroke-width="0.5" stroke-dasharray="1 7"/>
    <text id="_5_4_3_2_1_0" data-name="5

4

3

2

1

0" transform="translate(832 751)" fill="#8e8e8e" font-size="10" font-family="SegoeUI-Bold, Segoe UI" font-weight="700"><tspan x="0" y="0">5</tspan><tspan x="0" y="14"></tspan><tspan x="0" y="28">4</tspan><tspan x="0" y="42"></tspan><tspan x="0" y="56">3</tspan><tspan x="0" y="70"></tspan><tspan x="0" y="84">2</tspan><tspan x="0" y="98"></tspan><tspan x="0" y="112">1</tspan><tspan x="0" y="126"></tspan><tspan x="0" y="140">0</tspan></text>
    <text id="S_M_T_W_T_F_S" data-name="S            M            T            W            T            F            S" transform="translate(848 914)" fill="#8e8e8e" font-size="10" font-family="SegoeUI-Bold, Segoe UI" font-weight="700"><tspan x="0" y="0" xml:space="preserve">S            M            T            W            T            F            S</tspan></text>
    <g transform="matrix(1, 0, 0, 1, 765.5, 672.5)" filter="url(#Path_3)">
      <path id="Path_3-2" data-name="Path 3" d="M1367.5,2276.926s18.253-28.813,40.333-28.287,33.12-31.018,45.738-31.018,12.617,31.018,38.9,31.018,27.338-46.263,47.315-45.738,6.834,15.246,31.017,14.72,37.852-27.863,37.852-27.863" transform="translate(-1279.77 -2089.37)" fill="none" stroke="#ae29f9" stroke-width="2"/>
    </g>
    <g transform="matrix(1, 0, 0, 1, 765.5, 672.5)" filter="url(#Path_4)">
      <path id="Path_4-2" data-name="Path 4" d="M1370.311,2304.191s21.555-30.8,38.9-30.8,24.183-86.744,45.212-86.744,7.886-27.863,34.7-27.863,24.183,17.875,47.84,17.349,18.4-17.875,40.48-17.349,35.749,0,35.749,0" transform="translate(-1280.1 -2085.74)" fill="none" stroke="#2bdca6" stroke-width="2"/>
    </g>
    <text id="Goal_Set_" data-name="Goal Set " transform="translate(857 939)" fill="#717171" font-size="9" font-family="SegoeUI-Bold, Segoe UI" font-weight="700"><tspan x="0" y="0">Goal Set </tspan></text>
    <text id="Points_Achieved_" data-name="Points Achieved " transform="translate(973 939)" fill="#6d6d6d" font-size="9" font-family="SegoeUI-Bold, Segoe UI" font-weight="700"><tspan x="0" y="0">Points Achieved </tspan></text>
    <g transform="matrix(1, 0, 0, 1, 765.5, 672.5)" filter="url(#Line_14)">
      <line id="Line_14-2" data-name="Line 14" x2="29" transform="translate(134 264)" fill="none" stroke="#ae29f9" stroke-linecap="round" stroke-width="3"/>
    </g>
    <g transform="matrix(1, 0, 0, 1, 765.5, 672.5)" filter="url(#Line_15)">
      <line id="Line_15-2" data-name="Line 15" x2="29" transform="translate(283 264)" fill="none" stroke="#2bdca6" stroke-linecap="round" stroke-width="3"/>
    </g>
  </g>
</svg>
